<svg
    width="36px"
    height="36px"
    viewBox="0 0 36 36"
    version="1.1"
    xmlns="http://www.w3.org/2000/svg"
>
    <g
    id="Page-1"
    stroke="none"
    strokeWidth="1"
    fill="none"
    fillRule="evenodd"
    >
    <g
        id="ic-end-90-120"
        fill="black"
        fillRule="nonzero"
    >
        <path
        d="M18,36 C8.0588745,36 0,27.9411255 0,18 C0,8.0588745 8.0588745,1.13686838e-13 18,1.13686838e-13 L18,2.25 C9.30151519,2.25 2.25,9.30151519 2.25,18 C2.25,26.6984848 9.30151519,33.75 18,33.75 L18,36 Z"
        id="Path_4395"
        ></path>
        <path
        d="M18,36 C17.3786797,36 16.875,35.4963203 16.875,34.875 C16.875,34.2536797 17.3786797,33.75 18,33.75 C26.6984848,33.75 33.75,26.6984848 33.75,18 C33.75,9.30151519 26.6984848,2.25 18,2.25 C17.3786797,2.25 16.875,1.74632034 16.875,1.125 C16.875,0.503679656 17.3786797,0 18,0 C27.9411251,0 35.9999989,8.05887492 35.9999989,18 C35.9999989,27.9411251 27.9411251,36 18,36 L18,36 Z"
        id="Path_4394"
        ></path>
    </g>
    </g>
</svg>