<svg width="25" height="25" viewBox="0 0 25 25" version="1.1" xmlns="http://www.w3.org/2000/svg"><g id="Page-1" stroke="none" stroke-width="1" fill="none" fill-rule="evenodd"><g id="ic-goal-lineup" transform="translate(1.000000, 1.000000)"><g id="Ellipse_462"><circle id="Oval" fill="white" fill-rule="nonzero" cx="11.5" cy="11.5" r="11"></circle><circle id="Oval" stroke="white" cx="11.5" cy="11.5" r="11.5"></circle></g><g id="ic-goal-lineup-2" transform="translate(3.250000, 3.250000)"><polygon id="Rectangle_2687" points="0 0 16.5 0 16.5 16.5 0 16.5"></polygon><g id="Group_6431" transform="translate(0.000000, 0.000000)" fill="rgba(229, 94, 91, 1)" fill-rule="nonzero"><path d="M11.517,6.941 C11.3556055,6.80363222 11.1183945,6.80363222 10.957,6.941 L9.109,8.591 C8.91721503,8.70895448 8.83689915,8.94695861 8.918,9.157 C9.131,9.928 9.347,10.736 9.578,11.578 C9.63820355,11.7132 9.76207796,11.8092965 9.908,11.834 C10.1270033,11.8605071 10.3473984,11.8738644 10.568,11.874 L10.556,11.887 C11.0899808,11.8970216 11.6223862,11.8258768 12.135,11.676 C12.2850747,11.6121618 12.4147756,11.5084011 12.51,11.376 C12.5266137,11.3600459 12.5381017,11.3395068 12.543,11.317 C13.0599181,10.5516428 13.334814,9.6485627 13.3320214,8.725 C13.3286994,8.55776419 13.270749,8.39620542 13.167,8.265 C12.6993636,7.72983601 12.1407601,7.281599 11.517,6.941 L11.517,6.941 Z" id="Path_4276"></path><path d="M6.145,5.738 C6.1219269,5.54161339 5.9673243,5.38659741 5.771,5.363 C5.60240015,5.34655307 5.43259985,5.34655307 5.264,5.363 C4.71907187,5.36071671 4.17872297,5.46254125 3.672,5.663 C3.5855723,5.68421348 3.50603514,5.72725308 3.441,5.788 C3.41933428,5.80646568 3.40135227,5.82885837 3.388,5.854 C2.95720535,6.60021695 2.72963594,7.44636139 2.728,8.308 C2.73155015,8.42130385 2.76880383,8.5309759 2.835,8.623 C3.23433289,9.1711155 3.7392297,9.63385258 4.32,9.984 C4.38929108,10.0386955 4.47472935,10.0689329 4.563,10.07 L4.581,10.07 C4.68194269,10.0696746 4.77865322,10.0294085 4.85,9.958 L6.559,8.353 C6.66643265,8.24998309 6.71165082,8.09798924 6.678,7.953 L6.566,7.486 C6.421,6.895 6.277,6.313 6.145,5.738 L6.145,5.738 Z" id="Path_4277"></path><path d="M8.25,0 C3.69365081,0 0,3.69365081 0,8.25 C0,12.8063492 3.69365081,16.5 8.25,16.5 C12.8063492,16.5 16.5,12.8063492 16.5,8.25 C16.4955899,3.69547879 12.8045212,0.00441009384 8.25,0 L8.25,0 Z M13.619,12.356 C12.422032,13.9131609 10.6034141,14.8683281 8.642,14.97 L8.435,14.291 L8.39,14.137 C8.3535703,13.8674606 8.12398806,13.6660428 7.852,13.665 C6.92645809,13.6537155 6.02652035,13.3595521 5.273,12.822 C5.18313813,12.7795216 5.08536811,12.7563565 4.986,12.754 C4.85628326,12.7437748 4.7279278,12.7863196 4.63,12.872 L4.001,13.463 C1.85664037,11.7261238 0.991413507,8.85526019 1.81890936,6.22272004 C2.64640522,3.59017989 4.99855506,1.73064589 7.751,1.533 L7.869,1.942 C7.924,2.101 7.969,2.26 8.006,2.421 C8.06848979,2.59244577 8.20355423,2.72751021 8.375,2.79 L8.459,2.79 C9.36230926,2.92405371 10.2393854,3.19729667 11.059,3.6 C11.1275664,3.63320983 11.2028151,3.65031181 11.279,3.65 C11.3883493,3.65164073 11.4960094,3.62290829 11.59,3.567 L12.444,2.967 C15.3457342,5.24414954 15.8725541,9.43328264 13.625,12.358 L13.619,12.356 Z" id="Path_4278"></path></g></g></g></g></svg>