<svg
    width="20px"
    height="20px"
    viewBox="0 0 20 20"
    version="1.1"
    xmlns="http://www.w3.org/2000/svg"
    >
    <g
        id="Page-1"
        stroke="none"
        strokeWidth="1"
        fill="none"
        fillRule="evenodd"
    >
        <g id="ic-sub-in-lineup">
        <circle
            id="Oval"
            fill="#FFFFFF"
            fillRule="nonzero"
            cx="10"
            cy="10"
            r="9.167"
        ></circle>
        <path
            d="M10,0.833 C4.9372057,0.833 0.833,4.9372057 0.833,10 C0.833,15.0627943 4.9372057,19.167 10,19.167 C15.0627943,19.167 19.167,15.0627943 19.167,10 C19.167,7.56876044 18.2011938,5.23709812 16.4820479,3.51795214 C14.7629019,1.79880616 12.4312396,0.833 10,0.833 M10,0 C12.6521649,0 15.195704,1.0535684 17.0710678,2.92893219 C18.9464316,4.80429597 20,7.3478351 20,10 C20,12.6521649 18.9464316,15.195704 17.0710678,17.0710678 C15.195704,18.9464316 12.6521649,20 10,20 C4.4771525,20 0,15.5228475 0,10 C0,4.4771525 4.4771525,0 10,0 Z"
            id="Shape"
            fill="#D6D6D6"
            fillRule="nonzero"
        ></path>
        <g
            id="Group"
            transform="translate(3.333000, 3.333000)"
        >
            <polygon
            id="Path"
            points="1.77635684e-15 2.84217094e-14 13.333 2.84217094e-14 13.333 13.333 1.77635684e-15 13.333"
            ></polygon>
            <path
            d="M6.67,13.333 C2.99737947,13.3128179 0.0240384406,10.3425973 3.55271368e-15,6.67 C0.0240331324,2.99392413 2.999904,0.0207277951 6.676,1.42108547e-14 C10.3478356,0.0235295234 13.316634,2.99812549 13.333,6.67 C13.3095411,10.3401124 10.3401124,13.3095411 6.67,13.333 L6.67,13.333 Z M10.388,6.663 C10.3905025,6.46521208 10.3056088,6.27639676 10.156,6.147 L7.714,3.742 C7.59665571,3.62851368 7.43923213,3.56597554 7.276,3.568 C7.11756917,3.56412056 6.96447276,3.62535058 6.85241167,3.73741167 C6.74035058,3.84947276 6.67912056,4.00256917 6.683,4.161 C6.685442,4.32535775 6.75520736,4.48151649 6.876,4.593 L7.74,5.431 L8.552,6.082 L7.07,6.018 L3.56,6.018 C3.38965273,6.01384417 3.22530874,6.08101256 3.10663651,6.20329242 C2.98796428,6.32557229 2.92574615,6.4918535 2.935,6.662 C2.9269574,6.83182361 2.98957443,6.9974002 3.10797922,7.11940449 C3.226384,7.24140878 3.39001174,7.30895479 3.56,7.306 L7.07,7.306 L8.552,7.235 L7.746,7.892 L6.876,8.723 C6.75183038,8.83456602 6.68154313,8.99407802 6.683,9.161 C6.67912056,9.31943083 6.74035058,9.47252724 6.85241167,9.58458833 C6.96447276,9.69664942 7.11756917,9.75787944 7.276,9.754 C7.43866441,9.75303141 7.59501477,9.69091962 7.714,9.58 L10.156,7.18 C10.3059126,7.05031377 10.3911367,6.86121135 10.3890392,6.663 L10.388,6.663 Z"
            id="Shape"
            fill="#00985F"
            fillRule="nonzero"
            ></path>
        </g>
        </g>
    </g>
    </svg>