<svg
    xmlns="http://www.w3.org/2000/svg"
    width="13.5"
    height="13.5"
    viewBox="0 0 13.5 13.5"
    >
    <g>
        <path
        fill="none"
        d="M0 0H13.5V13.5H0z"
        transform="translate(0 0) translate(0 0)"
        ></path>
        <g>
        <path
            fill="#e55e5b"
            d="M15.487-72.242a6.791 6.791 0 0 0 6.753-6.747 6.8 6.8 0 0 0-6.76-6.753 6.785 6.785 0 0 0-6.74 6.753 6.789 6.789 0 0 0 6.747 6.747zM11.722-79a.68.68 0 0 1 .235-.522l2.473-2.434a.626.626 0 0 1 .444-.176.587.587 0 0 1 .6.6.61.61 0 0 1-.2.437l-.874.848-.822.659 1.5-.065h3.55a.619.619 0 0 1 .633.652.622.622 0 0 1-.633.652h-3.55l-1.5-.072.816.666.881.842a.589.589 0 0 1 .2.444.587.587 0 0 1-.6.6.656.656 0 0 1-.444-.176l-2.473-2.434a.683.683 0 0 1-.236-.521z"
            transform="translate(0 0) translate(0) translate(-8.74 85.742)"
        ></path>
        </g>
    </g>
    </svg>