<svg
    width="100%"
    height="100%"
    viewBox="0 0 13 13"
    version="1.1"
    xmlns="http://www.w3.org/2000/svg"
    >
    <g
        id="Page-1"
        stroke="none"
        strokeWidth="1"
        fill="none"
        fillRule="evenodd"
    >
        <g id="roundStar24Px">
        <g id="Bounding_Boxes">
            <polygon
            id="Path_541"
            points="0 0 13 0 13 13 0 13"
            ></polygon>
            <polygon
            id="Path_542"
            points="0 0 13 0 13 13 0 13"
            ></polygon>
        </g>
        <g
            id="Rounded"
            transform="translate(1.867278, 1.935386)"
            fill="#FFFFFF"
            fillRule="nonzero"
        >
            <path
            d="M4.63272179,7.41941433 L6.88042179,8.77921433 C7.06648135,8.89214518 7.30210963,8.88253227 7.47835171,8.75482062 C7.65459378,8.62710897 7.73710097,8.40618894 7.68772179,8.19421433 L7.09232179,5.63711433 L9.08002179,3.91461433 C9.244408,3.77228731 9.30756604,3.54534836 9.24033937,3.33856253 C9.1731127,3.13177669 8.98857687,2.98536373 8.77192179,2.96691433 L6.15502179,2.74461433 L5.13192179,0.329214332 C5.04665941,0.129541157 4.85048708,0 4.63337179,0 C4.4162565,0 4.22008416,0.129541157 4.13482179,0.329214332 L3.11172179,2.73941433 L0.496121789,2.96171433 C0.279238733,2.97970287 0.0942685405,3.12594289 0.0267269593,3.33282446 C-0.0408146219,3.53970602 0.0222330995,3.7669176 0.186721789,3.90941433 L2.17442179,5.62541433 L1.57772179,8.18771433 C1.52834261,8.39968894 1.6108498,8.62060897 1.78709187,8.74832062 C1.96333395,8.87603227 2.19896223,8.88564518 2.38502179,8.77271433 L4.63272179,7.41941433 Z"
            id="Path_543"
            ></path>
        </g>
        </g>
    </g>
    </svg>