<svg width="20px" height="20px" viewBox="0 0 20 20" version="1.1" xmlns="http://www.w3.org/2000/svg">
    <g id="Page-1" stroke="none" strokeWidth="1" fill="none" fillRule="evenodd">
        <g id="ic-goal">
            <polygon id="Rectangle_3217" points="0 0 20 0 20 20 0 20"></polygon>
            <g id="ic_goal_24px" transform="translate(2.223000, 2.222000)">
                <path
                    d="M10.311,11.123 C10.0954169,11.1228013 9.88003645,11.1097783 9.666,11.084 C9.5256591,11.0576967 9.40738043,10.9637475 9.35,10.833 C9.124,10.008 8.912,9.221 8.705,8.46 C8.62601076,8.25439191 8.70456253,8.02167705 8.892,7.906 L10.704,6.281 C10.8624282,6.14792017 11.0935718,6.14792017 11.252,6.281 C11.8609776,6.612911 12.4066641,7.04959565 12.864,7.571 C12.9681548,7.69872074 13.0272131,7.85726415 13.0320179,8.022 C13.0345496,8.92712669 12.7648745,9.81210727 12.258,10.562 C12.2525637,10.5837891 12.2415333,10.6037816 12.226,10.62 C12.1332504,10.7519339 12.0059171,10.8557383 11.858,10.92 C11.3556325,11.0660988 10.8340934,11.1355474 10.311,11.126 L10.311,11.123 Z"
                    id="Path_768" fill="black" fillRule="nonzero"></path>
                <path
                    d="M4.458,9.37 C4.37133661,9.36863341 4.28746182,9.3391544 4.219,9.286 C3.64744438,8.94342114 3.15059946,8.48942526 2.758,7.951 C2.69460108,7.8602755 2.65977634,7.75266708 2.658,7.642 C2.6593344,6.79934881 2.88173923,5.97179598 3.303,5.242 C3.31711498,5.21593265 3.335736,5.19257175 3.358,5.173 C3.42173841,5.11357397 3.49948895,5.07125841 3.584,5.05 C4.07998614,4.85100828 4.60958513,4.74916232 5.144,4.75 C5.31027329,4.73380573 5.47772671,4.73380573 5.644,4.75 C5.83721267,4.77238267 5.98961733,4.92478733 6.012,5.118 C6.141,5.679 6.283,6.253 6.425,6.833 L6.535,7.291 C6.56862791,7.433298 6.52450884,7.58277036 6.419,7.684 L4.734,9.26 C4.66404859,9.33019447 4.56909796,9.36975724 4.47,9.37 L4.458,9.37 Z"
                    id="Path_769" fill="black" fillRule="nonzero"></path>
                <path
                    d="M7.815,0.078 C3.54197289,0.078 0.078,3.54197289 0.078,7.815 C0.078,12.0880271 3.54197289,15.552 7.815,15.552 C12.0880271,15.552 15.552,12.0880271 15.552,7.815 C15.552,3.54197289 12.0880271,0.078 7.815,0.078 Z M8.124,14.263 L7.911,13.563 L7.866,13.408 C7.8367493,13.1889868 7.64894931,13.0260553 7.428,13.028 C6.54002248,13.016672 5.67648549,12.7355691 4.952,12.222 C4.87726184,12.1861774 4.79584445,12.1664192 4.713,12.164 C4.61229869,12.155338 4.51237889,12.187803 4.436,12.254 L3.791,12.86 C1.69780063,11.2021224 0.843015002,8.42559003 1.64136686,5.87751703 C2.43971871,3.32944403 4.72601754,1.53706343 7.391,1.37 L7.52,1.815 C7.57069052,1.96302642 7.6137472,2.11355792 7.649,2.266 C7.69951322,2.40557236 7.80942764,2.51548678 7.949,2.566 L8.013,2.566 C8.87541229,2.69395961 9.71272245,2.95507084 10.495,3.34 C10.5516042,3.36653092 10.6134926,3.37986599 10.676,3.379 C10.7616114,3.37757935 10.8456314,3.35563128 10.921,3.315 L11.779,2.709 C13.9279341,4.36109437 14.8141956,7.18077015 13.9968581,9.765203 C13.1795206,12.3496358 10.8331119,14.1469664 8.125,14.263 L8.124,14.263 Z"
                    id="Path_770" fill="black" fillRule="nonzero"></path>
                <polygon id="Rectangle_2687" points="0 0 15.556 0 15.556 15.556 0 15.556"></polygon>
            </g>
        </g>
    </g>
</svg>