<svg
    width="20px"
    height="20px"
    viewBox="0 0 20 20"
    version="1.1"
    xmlns="http://www.w3.org/2000/svg"
    >
    <g
        id="Page-1"
        stroke="none"
        strokeWidth="1"
        fill="none"
        fillRule="evenodd"
    >
        <g id="round-star-24-px">
        <g id="Bounding_Boxes">
            <polygon
            id="Path_541"
            points="0 0 20 0 20 20 0 20"
            ></polygon>
            <polygon
            id="Path_542"
            points="0 0 20 0 20 20 0 20"
            ></polygon>
        </g>
        <g
            id="Rounded"
            transform="translate(2.870648, 2.977685)"
            fill="gold"
            fillRule="nonzero"
        >
            <path
            d="M7.12935218,11.4133151 L10.5873522,13.5053151 C10.8734948,13.6801183 11.2366576,13.6658244 11.508176,13.469072 C11.7796944,13.2723195 11.9063627,12.9316633 11.8293522,12.6053151 L10.9123522,8.67231512 L13.9713522,6.02631512 C14.2243325,5.80721987 14.3214137,5.45787354 14.2177459,5.13966798 C14.1140781,4.82146243 13.829843,4.59634466 13.4963522,4.56831512 L9.47135218,4.22631512 L7.89635218,0.505315121 C7.76489332,0.19875032 7.46341388,0 7.12985218,0 C6.79629048,0 6.49481104,0.19875032 6.36335218,0.505315121 L4.78735218,4.21331512 L0.76235218,4.55531512 C0.428861355,4.58334466 0.144626234,4.80846243 0.0409584443,5.12666798 C-0.0627093459,5.44487354 0.0343718316,5.79421987 0.28735218,6.01331512 L3.34535218,8.66331512 L2.42935218,12.5963151 C2.35234161,12.9226633 2.47900997,13.2633195 2.75052836,13.460072 C3.02204676,13.6568244 3.38520955,13.6711183 3.67135218,13.4963151 L7.12935218,11.4133151 Z"
            id="Path_543"
            ></path>
        </g>
        </g>
    </g>
    </svg>