<svg
    width="25"
    height="25"
    viewBox="0 0 25 25"
    version="1.1"
    xmlns="http://www.w3.org/2000/svg"
>
    <g
    id="Page-1"
    stroke="none"
    strokeWidth="1"
    fill="none"
    fillRule="evenodd"
    >
    <g
        id="ic-goal-lineup"
        transform="translate(1.000000, 1.000000)"
    >
        <g id="Ellipse_462">
        <circle
            id="Oval"
            fill="white"
            fillRule="nonzero"
            cx="11.5"
            cy="11.5"
            r="11"
        ></circle>
        <circle
            id="Oval"
            stroke="white"
            cx="11.5"
            cy="11.5"
            r="11.5"
        ></circle>
        </g>
        <g
        id="ic_transfer_news"
        transform="translate(3.250000, 3.250000)"
        >
        <g id="Group_283">
            <polygon
            id="Rectangle_155"
            points="0 0 16.5 0 16.5 16.5 0 16.5"
            ></polygon>
        </g>
        <path
            d="M4.75827604,9.39180243 L4.75827604,14.7688024 C4.75827604,15.2630973 5.15898118,15.6638024 5.65327604,15.6638024 C6.14757089,15.6638024 6.54827604,15.2630973 6.54827604,14.7688024 L6.54827604,9.39180243 L8.14827604,9.39180243 C8.32952128,9.39368504 8.49363019,9.28496592 8.56257653,9.11733601 C8.63152286,8.9497061 8.59139664,8.75698489 8.46127604,8.63080243 L5.96627604,6.14380243 C5.78875736,5.97376724 5.50879471,5.97376724 5.33127604,6.14380243 L2.83427604,8.63080243 C2.70626214,8.75773027 2.66747366,8.9493516 2.73604632,9.116073 C2.80461899,9.28279439 2.96700342,9.39167312 3.14727604,9.39180243 L4.75827604,9.39180243 Z"
            id="Path_2279"
            fill="#E55E5B"
            fillRule="nonzero"
            transform="translate(5.649237, 10.840039) rotate(-90.000000) translate(-5.649237, -10.840039) "
        ></path>
        <path
            d="M11.1412385,10.1637615 L13.6412385,7.66376151 C13.7713591,7.53757905 13.8114853,7.34485784 13.742539,7.17722793 C13.6735927,7.00959801 13.5094837,6.9008789 13.3282385,6.90276151 L11.7222385,6.90276151 L11.7222385,1.52876151 C11.7222385,1.03446665 11.3215333,0.633761505 10.8272385,0.633761505 C10.3329436,0.633761505 9.93223849,1.03446665 9.93223849,1.52876151 L9.93223849,6.90676151 L8.33123849,6.90676151 C8.14999325,6.9048789 7.98588434,7.01359801 7.916938,7.18122793 C7.84799167,7.34885784 7.88811789,7.54157905 8.01823849,7.66776151 L10.5182385,10.1677615 C10.6922931,10.3377308 10.9701839,10.3377308 11.1442385,10.1677615 L11.1412385,10.1637615 Z"
            id="Path_2280"
            fill="#00985F"
            fillRule="nonzero"
            transform="translate(10.829738, 5.464500) rotate(-90.000000) translate(-10.829738, -5.464500) "
        ></path>
        </g>
    </g>
    </g>
</svg>